# xmcd
#
# Track frame offsets: 
#        150
#        14310
#        28072
#        40057
#        54127
#        67245
#        79277
#        94010
#        106837
#        120157
#        131422
#        144727
#        158192
#        169440
#        182292
#        200707
#        213382
#        227777
#        242597
#        257840
#
# Disc length: 3592 seconds
#
# Revision: 2
# Processed by: cddbd v1.5.2PL0 Copyright (c) Steve Scherf et al.
# Submitted via: ExactAudioCopy v1.0b1
#
DISCID=110e0614
DTITLE=Ella Fitzgerald - Best Of (Rhythm 'n' Romance) [CD 2)
DYEAR=1999
DGENRE=Soul
TTITLE0=Bei mir bist Du schoen
TTITLE1=I Love Each Move You Make
TTITLE2=If Dreams Come True
TTITLE3=I Can't Stop Loving You
TTITLE4=Organ Grinders Swing
TTITLE5=Wake Up and Live
TTITLE6=The Dipsy Doodle
TTITLE7=Strictly From Dixie
TTITLE8=I Was Doing All Right
TTITLE9=Vote For Mr. Rhythm
TTITLE10=Pack Up Your Sins
TTITLE11=If You Can't Sing It (You'll Have To Swing It)
TTITLE12=When I Get Low I Get High
TTITLE13=Saving Myself For You
TTITLE14=Hallelujah
TTITLE15=Everybody Step
TTITLE16=Holiday In Harlem
TTITLE17=Deep In The Heart Of The South
TTITLE18=One Side Of Me
TTITLE19=I Found My Yellow Basket
EXTD=
EXTT0=
EXTT1=
EXTT2=
EXTT3=
EXTT4=
EXTT5=
EXTT6=
EXTT7=
EXTT8=
EXTT9=
EXTT10=
EXTT11=
EXTT12=
EXTT13=
EXTT14=
EXTT15=
EXTT16=
EXTT17=
EXTT18=
EXTT19=
PLAYORDER=
